<?xml version="1.0" encoding="iso-8859-1"?>
<!-- Uploaded to: SVG Repo, www.svgrepo.com, Generator: SVG Repo Mixer Tools -->
<svg height="800px" width="800px" version="1.1" id="Layer_1" xmlns="http://www.w3.org/2000/svg" xmlns:xlink="http://www.w3.org/1999/xlink" 
	 viewBox="0 0 511.844 511.844" xml:space="preserve">
<path style="fill:#9ED36A;" d="M458.543,202.618c0,111.896-90.721,202.603-202.625,202.603S53.3,314.514,53.3,202.618
	C53.3,90.715,144.014,0,255.918,0S458.543,90.715,458.543,202.618z"/>
<g style="opacity:0.2;">
	<path style="fill:#FFFFFF;" d="M255.919,0c-3.577,0-7.131,0.094-10.661,0.281c106.944,5.545,191.95,94.011,191.95,202.337
		c0,108.318-85.006,196.792-191.95,202.321c3.53,0.188,7.084,0.281,10.661,0.281c111.904,0,202.625-90.707,202.625-202.603
		C458.543,90.715,367.822,0,255.919,0z"/>
</g>
<g>
	<path style="fill:#7F4545;" d="M194.398,244.012c-4.272-4.062-11.02-3.89-15.082,0.383c-4.053,4.264-3.889,11.02,0.383,15.073l0,0
		l67.495,64.152l14.698-15.448L194.398,244.012z"/>
	<path style="fill:#7F4545;" d="M328.615,196.519c-3.406-4.804-10.061-5.944-14.871-2.539l-63.402,44.877l12.324,17.409
		l63.387-44.885C330.863,207.976,332.004,201.321,328.615,196.519z"/>
</g>
<path style="fill:#965353;" d="M255.919,149.267c-5.889,0-10.661,4.78-10.661,10.669v351.908h21.321V159.936
	C266.578,154.047,261.807,149.267,255.919,149.267z"/>
<path style="fill:#424953;" d="M287.908,490.507h-63.98c-5.889,0-10.669,4.78-10.669,10.685c0,5.873,4.78,10.652,10.669,10.652
	h63.98c5.889,0,10.668-4.779,10.668-10.652C298.576,495.287,293.797,490.507,287.908,490.507z"/>
<g>
	<path style="fill:#EC5564;" d="M170.702,170.597c0,11.777-9.544,21.329-21.322,21.329c-11.785,0-21.33-9.552-21.33-21.329
		c0-11.778,9.544-21.322,21.33-21.322C161.158,149.275,170.702,158.818,170.702,170.597z"/>
	<path style="fill:#EC5564;" d="M341.236,106.64c0,11.777-9.561,21.329-21.338,21.329s-21.338-9.552-21.338-21.329
		c0-11.778,9.561-21.33,21.338-21.33S341.236,94.861,341.236,106.64z"/>
	<path style="fill:#EC5564;" d="M362.666,287.928c0,11.777-9.559,21.322-21.336,21.322s-21.338-9.545-21.338-21.322
		s9.561-21.329,21.338-21.329S362.666,276.151,362.666,287.928z"/>
</g>
</svg>