<?xml version="1.0" encoding="UTF-8" standalone="no"?>
<!-- Created with Inkscape (http://www.inkscape.org/) -->

<svg
   width="379.57422mm"
   height="422.74881mm"
   viewBox="0 0 379.57422 422.74881"
   version="1.1"
   id="svg1"
   inkscape:version="1.1.2 (0a00cf5339, 2022-02-04)"
   sodipodi:docname="tree_icon.svg"
   xmlns:inkscape="http://www.inkscape.org/namespaces/inkscape"
   xmlns:sodipodi="http://sodipodi.sourceforge.net/DTD/sodipodi-0.dtd"
   xmlns="http://www.w3.org/2000/svg"
   xmlns:svg="http://www.w3.org/2000/svg">
  <sodipodi:namedview
     id="namedview1"
     pagecolor="#ffffff"
     bordercolor="#000000"
     borderopacity="0.25"
     inkscape:showpageshadow="2"
     inkscape:pageopacity="0.0"
     inkscape:pagecheckerboard="0"
     inkscape:deskcolor="#d1d1d1"
     inkscape:document-units="mm"
     inkscape:zoom="0.17153603"
     inkscape:cx="445.97045"
     inkscape:cy="314.80267"
     inkscape:window-width="1920"
     inkscape:window-height="1011"
     inkscape:window-x="0"
     inkscape:window-y="32"
     inkscape:window-maximized="1"
     inkscape:current-layer="layer1"
     inkscape:pageshadow="2"
     showgrid="false" />
  <defs
     id="defs1" />
  <g
     inkscape:label="Layer 1"
     inkscape:groupmode="layer"
     id="layer1"
     transform="translate(62.972607,112.8744)">
    <path
       style="fill:#b25c26;stroke:none;stroke-width:0.264583"
       d="m 97.830381,242.36272 -4.335039,14.71713 c 6.272901,2.13252 4.344459,7.68122 2.802096,12.30739 -3.557772,10.67136 -10.962904,19.33048 -15.704475,29.35356 l 92.174877,-0.2453 c -4.12774,-7.41402 -8.68915,-15.45034 -11.99327,-23.32445 -7.02455,-16.74037 -10.62863,-34.92992 -12.55548,-52.91666 -1.11816,-10.43744 -3.00175,-21.03835 -0.23953,-31.39723 4.2259,-15.84796 16.37239,-29.97147 24.92473,-43.74444 2.13341,-3.43572 4.36049,-6.81458 6.52531,-10.23056 0.68921,-1.08763 1.99406,-2.83962 1.02645,-4.12094 -2.05912,-2.72669 -7.87199,4.86172 -9.24787,6.2376 -5.8351,5.83505 -15.5628,21.25298 -25.4,14.77857 -5.53112,-3.64032 -4.82918,-9.11027 -4.0303,-14.77857 1.35763,-9.63252 2.48783,-19.29984 3.88194,-28.92776 0.73065,-5.04603 3.28645,-11.28033 -3.73221,-11.288902 -0.95946,0 -2.18453,-0.167667 -3.07673,0.261884 -1.38737,0.667914 -2.1186,2.308838 -2.34625,3.616718 -0.67574,3.88247 -1.52818,7.87559 -2.18434,11.76166 -2.12702,12.59726 -4.63799,25.70149 -6.74066,38.30288 -0.96914,5.80806 -0.90821,12.1535 -7.52425,14.03681 -6.09555,1.73519 -9.86049,-3.10862 -13.26835,-7.30218 -7.360126,-9.05711 -14.665669,-18.16571 -22.097603,-27.16388 -3.748246,-4.53813 -6.181699,-10.52917 -12.611814,-7.90104 -0.998273,0.40805 -2.267003,0.80947 -2.960767,1.68876 -1.425231,1.80644 -2.763494,5.57096 -1.60909,6.9265 l 12.259072,16.24333 16.043248,26.72836 c 3.987218,6.64279 8.230104,12.68773 10.140924,20.29572 1.8827,7.49596 2.12101,14.56555 1.02291,22.14856 -0.88205,6.09084 -1.07027,15.42896 -3.40215,21.14793 -1.12649,2.76281 -2.81723,3.35717 -5.741379,2.78855 z"
       id="path9455"
       sodipodi:nodetypes="ccsccsssssssssscsssssssssscssssc" />
    <path
       style="fill:#9a4f23;fill-opacity:1;stroke:none;stroke-width:13.2292;stroke-dasharray:none;stroke-opacity:1"
       d="m 140.97225,99.271505 c 0,0 -21.51604,98.839305 -16.47322,120.691535 5.04283,21.85223 11.76658,67.57379 24.87793,78.66801 13.11132,11.09422 22.1884,7.05995 22.1884,7.05995 l 2.35331,-6.72377 -22.52458,-68.24618 2.35331,-46.39394 30.92928,-48.74728 -11.09419,-7.73232 -26.55887,24.20554 0.33621,-54.46247 z"
       id="path12834" />
    <g
       id="g12830"
       transform="matrix(0.26458333,0,0,0.26458333,-1854.3906,-1476.1813)">
      <path
         style="fill:#127a3e;stroke:none"
         d="m 7916.9575,6151.0914 c -15.7922,7 -33.6005,10.6579 -50.6667,12.9567 -6.1291,0.8257 -18.2922,-0.4502 -23.32,3.0804 -7.9731,5.5987 -12.0698,27.2533 -17.6069,35.9629 -16.4139,25.8189 -41.1053,50.682 -69.7398,62.6667 v 1.3333 c 52.7752,0 107.3648,-23.8647 139.1605,-66.6667 8.3374,-11.2234 23.591,-34.8531 22.1729,-49.3333 z"
         id="path10064" />
      <path
         style="fill:#127a3e;stroke:none"
         d="m 7128.6568,5337.7591 v 1.3333 h 9.3333 l -9.3333,-1.3333 m 34.6666,0 v 1.3333 h 9.3334 l -9.3334,-1.3333 m 626.6667,0 v 1.3333 h 9.3334 l -9.3334,-1.3333 m 30.6667,0 v 1.3333 c 87.464,36.4226 138.1403,137.9412 131.8807,229.3333 -2.2707,33.152 -16.277,59.6429 -25.214,90.6667 46.7304,22.1429 86.5452,52.9336 115.9619,96 70.3323,102.9673 55.7625,245.3246 -31.9629,333.3333 -21.4567,21.5261 -47.7678,41.5795 -75.999,53.3334 v 1.3333 c 21.1783,-0.1753 42.7042,-5.7659 62.6666,-12.4443 135.7626,-45.4193 203.0487,-211.1997 136.1481,-338.2224 -18.799,-35.6932 -44.6391,-65.333 -77.4814,-88.7633 -15.3224,-10.9313 -46.2684,-18.493 -55.2417,-35.2376 -7.5303,-14.052 5.0884,-29.7157 9.8374,-42.6657 7.0936,-19.3433 11.8748,-39.411 13.285,-60.0001 0.8408,-12.2755 -1.4946,-25.171 0.4043,-37.3333 1.5789,-10.1136 9.793,-17.5888 19.715,-18.6667 l -14.6667,-50.6666 c -30.4087,9.6395 -47.1072,-39.0778 -65.3333,-57.3334 -37.5663,-37.6265 -89.9154,-63.9641 -144,-63.9999 z"
         id="path8144" />
      <path
         style="fill:#1ba049;stroke:none"
         d="m 7322.6539,6248.844 c -4.7316,-14.947 -4.7337,-37.6543 -17.4727,-51.3764 l -43.0826,-75.6154 c -7.6922,-13.5009 -34.1606,-18.0845 -37.8857,-33.3622 -11.5051,-47.1846 45.2093,-95.6486 87.0541,-78.5633 19.164,7.8249 31.4884,27.5895 43.999,43.1647 18.2826,22.7612 36.9583,45.2067 55.2005,68 10.1668,12.7031 22.3538,36.3841 35.0241,46.6082 5.8571,-18.5218 13.5725,-46.4801 16.8102,-65.6552 5.3342,-31.5918 11.3728,-65.61 16.6738,-97.208 3.6707,-21.8798 -4.7283,-48.3078 8.5231,-66.8178 26.8857,-37.555 98.8161,-29.7156 114.7417,14.5266 6.4688,17.9703 -0.4716,40.0726 -3.0488,58.3581 -4.8172,34.1794 -12.9924,72.0131 -17.3238,106.255 26.8042,-18.8814 48.1064,-59.1382 78.7335,-72.9826 35.2206,-15.9207 68.2448,11.9432 63.1629,51.0724 -2.511,19.335 -13.5826,37.3271 -23.8325,53.2707 -19.0203,29.5865 -36.8737,61.2009 -57.5581,89.651 l 23.3362,8.5422 c 23.0713,16.425 40.1825,19.5318 68.2248,21.0934 7.4971,0.4175 15.2191,2.5525 22.6667,0.4362 19.7967,-5.6251 40.9867,-25.2042 53.8796,-40.4835 9.6845,-11.4772 18.1087,-23.6472 24.3755,-37.3334 2.688,-5.8704 4.4155,-17.7249 10.1154,-21.2962 4.9135,-3.0788 15.1933,-2.1207 20.9629,-2.7706 12.5061,-1.4089 25.2706,-3.9665 37.3333,-7.5608 44.1074,-13.1424 86.3319,-37.2804 118.6142,-71.039 103.3601,-108.0866 94.855,-286.6543 -18.6142,-384.1739 -20.1157,-17.2882 -44.0252,-33.8753 -69.3333,-42.4928 8.9681,-21.5413 17.9153,-42.1683 22.1009,-65.3334 13.0595,-72.2784 -8.1693,-146.3605 -56.5607,-201.3333 -17.8259,-20.2504 -45.4092,-46.2113 -72.2069,-53.8169 -24.7956,-7.0373 -60.6872,4.7739 -84,12.9435 -8.9129,3.1234 -18.3903,9.7874 -28,10.0246 -17.5676,0.4336 -16.099,-16.8192 -27.0371,-23.2408 -14.4668,-8.4931 -33.7339,-8.937 -48.9629,-18.1831 -25.0471,-15.207 -38.7746,-37.6808 -56.8189,-59.7273 -15.0311,-18.3651 -32.1469,-34.3371 -51.1811,-48.4939 -10.6376,-7.9117 -24.1001,-18.7918 -37.3334,-21.6523 -17.361,-3.7529 -39.1025,1.1418 -56,5.3119 -16.7802,4.1411 -32.5861,10.0074 -48,17.8426 -18.9903,9.653 -36.8882,22.6603 -51.9989,37.6635 -20.2003,20.0568 -36.0253,44.3874 -46.853,70.6615 -5.9208,14.3674 -7.5675,34.153 -25.1481,39.1481 -10.425,2.9621 -21.292,-4.8402 -30.6666,-8.396 -16.9937,-6.4458 -35.2068,-11.4313 -53.3334,-13.1924 -82.8014,-8.0447 -164.3001,29.9992 -207.396,102.4404 -25.5624,42.9684 -34.9371,94.8421 -26.6904,144 2.8293,16.8655 7.3647,33.7522 14.498,49.3333 4.5448,9.9272 12.1404,20.8636 6.8251,32 -5.5986,11.7301 -18.0844,14.7786 -28.57,20.4126 -18.5777,9.9819 -36.3123,21.6444 -52,35.8138 -54.316,49.0592 -83.5417,122.8434 -78.5473,195.7736 6.2309,90.9876 64.2997,170.4606 147.8806,206.0967 19.0143,8.1071 39.5813,13.0674 60,15.999 9.5852,1.3763 22.0572,-0.2122 30.6667,4.6903 12.0519,6.8628 13.6432,20.3403 18.9043,31.8807 6.66,14.6089 16.2922,28.6595 27.8149,39.8807 59.7757,58.2119 154.9305,59.3103 227.3344,29.2052 z"
         id="path7569"
         sodipodi:nodetypes="ccssssscssssscsssccssssssssscsssssssssssssssssssssssssssssc" />
      <path
         style="fill:#127a3e;stroke:none"
         d="m 7476.8965,5191.6684 v 1.3334 c 20.677,0 35.6796,10.0345 52,22.1728 33.5892,24.9821 53.1055,57.715 81.3858,87.1595 22.8263,23.766 49.4953,31.4403 79.9476,40.001 -22.0567,-95.2953 -121.6992,-150.6667 -213.3334,-150.6667 z"
         id="path7564" />
    </g>
    <path
       style="fill:#08080a;stroke:none;stroke-width:0.262107"
       d="m -22.615306,19.447375 c -8.264578,2.430066 -16.679015,10.780342 -22.115859,17.120976 -20.254806,23.621867 -24.097932,58.199548 -9.235122,85.604849 8.286882,15.28011 21.910833,27.19015 37.99234,33.68141 4.395391,1.77421 8.9876049,3.06321 13.6321801,3.98478 1.86663535,0.37037 5.0279828,0.16087 6.5628307,1.3289 2.6909977,2.04785 4.3327902,7.78166 6.4247452,10.6208 4.780491,6.48774 11.524059,11.96043 18.82087,15.41274 12.271216,5.80589 25.765284,7.52113 39.148834,5.45574 4.635686,-0.71536 9.319313,-2.05314 13.632207,-3.89689 1.350856,-0.57748 4.036377,-2.66822 5.519367,-1.94919 2.379001,1.15343 4.444709,6.7428 5.386334,9.08669 4.277016,10.64689 2.158974,21.52817 0.365707,32.49491 -0.77089,4.71458 -7.620792,32.90204 -0.26318,33.82046 2.685944,0.33528 9.214692,-20.08001 10.315812,-22.63938 2.43303,-5.65526 2.34553,-13.49777 3.18955,-19.56686 0.92985,-6.68634 1.49252,-13.23123 0.147,-19.91622 -1.80615,-8.97372 -6.45583,-16.37453 -11.098234,-24.10913 L 80.709829,150.82461 70.642936,134.05307 c -0.896091,-1.49293 -3.459374,-4.37639 -2.112089,-6.15182 0.661114,-0.87133 1.919208,-1.21817 2.881021,-1.6333 1.181471,-0.50991 2.855198,-1.55895 4.189413,-1.27466 3.037549,0.6473 6.499119,7.09255 8.422481,9.40919 7.283291,8.77239 14.411854,17.6838 21.574578,26.55493 3.63722,4.5048 7.66738,8.89569 14.05051,7.06181 6.0992,-1.75239 6.72137,-8.06974 7.60367,-13.35111 2.12389,-12.71363 4.57732,-25.37164 6.69954,-38.08542 0.64249,-3.84895 1.36375,-7.68689 2.03793,-11.53046 0.27403,-1.56216 0.45546,-3.64025 2.20004,-4.26919 0.88707,-0.3198 1.87523,-0.0172 2.78095,0.045 6.60736,0.45234 4.10258,6.69304 3.40075,11.56171 -1.39161,9.65394 -2.53693,19.34308 -3.89864,29.00085 -0.7312,5.18626 -1.23296,10.33756 3.64379,13.74955 9.69484,6.78294 19.69878,-8.28331 25.51668,-14.09898 1.33289,-1.33237 7.175,-9.1344 9.16308,-6.52632 0.9924,1.30185 -0.42535,2.99257 -1.10607,4.08048 -2.12098,3.38987 -4.28797,6.75029 -6.42069,10.13283 -4.7779,7.57774 -9.61329,15.11903 -14.36825,22.71146 -4.01781,6.41538 -8.07178,12.50143 -10.02885,19.91627 -2.72994,10.34307 -1.13599,20.65417 -0.0175,31.09725 1.92913,18.01286 5.40022,36.33891 12.44036,53.10997 3.29912,7.85918 8.12779,14.73591 11.7361,22.36208 h -88.4344 c 1.564614,-4.12626 4.648094,-7.94904 6.71793,-11.87987 3.268212,-6.20668 5.767043,-12.9172 7.962608,-19.56684 1.477857,-4.47593 11.796272,-42.83721 4.830642,-42.1164 -5.436948,0.56258 -11.088359,21.22822 -17.655869,42.46584 -3.559291,11.50982 -9.919176,22.1143 -17.555633,31.44668 -2.242079,2.73997 -3.876754,6.71317 -0.96258,9.7087 2.132991,2.19263 5.488437,1.82173 8.273864,1.82173 h 19.22489 67.461848 17.47718 c 2.68959,0 5.98845,0.47284 8.37501,-1.0501 2.44944,-1.56308 3.18289,-5.10736 1.95673,-7.68511 -1.38136,-2.90389 -4.10443,-5.42743 -5.98887,-8.03633 -3.43344,-4.75345 -6.35251,-9.78508 -8.97329,-15.02455 -9.46769,-18.92802 -12.84052,-39.67154 -15.39306,-60.4475 -1.28207,-10.43527 -2.45631,-21.69662 3.46035,-31.09428 0.37875,-0.60156 0.86201,-1.54757 1.69622,-1.51331 1.4106,0.058 3.12057,1.65182 4.3806,2.24795 3.17241,1.50093 6.43469,2.75839 9.7872,3.79574 13.87684,4.29369 30.43372,3.41434 43.69295,-2.5437 8.16988,-3.67112 15.55927,-8.84227 21.08964,-15.96599 1.76946,-2.27923 3.36894,-4.7697 4.68591,-7.33756 0.64971,-1.26669 1.09426,-3.09002 2.26642,-3.98203 1.53474,-1.16801 4.69622,-0.95853 6.56278,-1.3289 4.64457,-0.92157 9.23686,-2.21062 13.6322,-3.98478 16.08148,-6.49121 29.70557,-18.4013 37.99232,-33.68141 14.86265,-27.405433 11.01979,-61.982902 -9.23507,-85.604849 -5.44502,-6.350212 -13.83697,-14.68673 -22.11592,-17.120976 3.48967,-9.043008 5.27563,-17.9604955 4.89361,-27.6031847 -0.89225,-22.5215783 -7.96596,-30.5967183 -13.67633,-27.9565723 -4.43823,2.051977 0.65932,11.16969 1.79212,25.510737 0.53402,6.7606221 -0.1306,13.3795297 -2.21779,19.9162196 -1.26588,3.9643314 -5.15544,9.4588014 -4.54301,13.6268884 0.639,4.349168 4.88572,5.129212 8.15872,6.93965 6.20263,3.430958 12.31112,7.628864 17.02782,12.976595 20.77871,23.558394 23.01221,58.393302 2.73431,83.158962 -8.14681,9.94984 -19.27593,17.28632 -31.6466,20.81509 -5.19229,1.48114 -12.44412,0.7606 -17.12251,3.18487 -2.69997,1.39906 -3.06097,4.56089 -4.14758,7.09734 -1.54184,3.59905 -3.64631,6.94431 -6.3576,9.78342 -11.84762,12.40623 -29.47744,17.02427 -46.12597,13.62551 -3.90647,-0.79745 -7.62556,-2.15035 -11.18537,-3.92837 -1.0309,-0.51493 -2.95198,-1.07958 -3.537,-2.14662 -0.57812,-1.05442 0.71265,-2.51296 1.23822,-3.35764 1.74898,-2.8108 3.52092,-5.61002 5.32461,-8.38581 6.01472,-9.25603 21.03826,-25.28327 11.24069,-36.33698 -12.46717,-14.06572 -26.87135,5.61047 -35.23912,13.97492 0.1873,-9.0805 2.29333,-18.60743 3.59011,-27.60321 0.6586,-4.56877 1.94215,-9.44176 0.58954,-13.976294 C 153.4449,86.72663 133.41184,84.787975 126.67647,94.9194 c -3.19114,4.800203 -3.10123,11.93649 -4.16242,17.47038 -1.71373,8.93686 -3.25125,17.93015 -4.7574,26.9044 -0.76948,4.58494 -2.10227,9.33222 -2.30224,13.9763 -3.22014,-2.59745 -5.72119,-6.56921 -8.32025,-9.78342 -5.09852,-6.3051 -10.19643,-12.61714 -15.361308,-18.868 -2.876735,-3.48162 -5.503942,-7.80444 -9.525053,-10.07192 -10.860405,-6.12407 -27.512883,3.86149 -26.196607,16.36125 0.572135,5.43299 4.791657,10.46049 7.531126,15.02453 5.983552,9.96897 12.50278,19.78784 17.966399,30.04904 -4.75316,1.36875 -9.044728,3.74193 -13.981747,4.7348 -14.438948,2.90396 -31.461207,-0.68691 -42.29473,-11.03783 -3.330681,-3.18233 -6.436731,-6.61268 -8.427906,-10.81794 -1.34059,-2.83123 -1.849331,-7.28382 -4.859866,-8.84436 -2.7481213,-1.42452 -6.4355663,-0.9602 -9.4325546,-1.44158 -5.8147478,-0.93398 -11.4024832,-2.64639 -16.7780754,-5.03944 -22.114642,-9.84478 -38.107382,-34.33567 -37.03783,-58.749011 0.741177,-16.918146 7.722605,-33.98221 20.609295,-45.32323 4.202166,-3.698161 8.671243,-6.993943 13.632206,-9.610302 2.606675,-1.374775 6.354551,-2.201809 7.610105,-5.165936 1.4968008,-3.533696 -0.921385,-6.96984 -2.208953,-10.131425 -2.12897,-5.2278758 -3.408786,-10.8079911 -3.943668,-16.4221848 -2.117751,-22.2284392 10.875989,-43.2782132 30.001395,-53.8572602 10.772325,-5.958628 23.990432,-7.563432 36.002965,-5.393769 3.972401,0.717444 7.806716,2.034911 11.534934,3.556635 2.655781,1.083945 5.210016,2.522405 8.039205,1.032298 2.87028,-1.511643 3.300492,-4.768029 4.343427,-7.532475 1.82962,-4.84968 4.173775,-9.439169 7.246011,-13.626888 11.661987,-15.896326 31.00102,-24.877762 50.62958,-23.001552 16.13427,1.542177 30.90106,10.603706 40.24625,23.700396 2.91846,4.090008 5.19551,8.566493 6.92346,13.277479 1.08053,2.945897 1.60522,6.242526 4.91222,7.489878 4.52766,1.7077 11.88638,-3.247073 16.42851,-4.381871 8.81449,-2.202206 18.53528,-1.891188 27.26441,0.534379 10.6584,2.961587 19.72562,8.902541 27.23312,16.972677 3.29181,3.538485 7.94976,8.79403 10.16825,13.077454 8.44238,16.30038 17.80435,10.221169 8.10911,-7.486967 -2.62409,-4.792834 -6.27438,-10.319226 -9.80284,-14.325706 -12.13514,-13.779261 -30.66378,-22.012671 -48.99027,-22.012671 -5.7058,0 -11.19318,0.34544 -16.77808,1.625176 -1.84494,0.422752 -5.8339,2.458059 -7.61145,1.74543 -1.73141,-0.694108 -3.01803,-5.252826 -3.83829,-6.864667 -2.59903,-5.107226 -6.199,-9.692164 -9.97222,-13.976324 -10.60035,-12.035713 -27.0223,-19.737413 -42.89404,-21.254503 -20.33701,-1.94395 -41.824064,5.46023 -55.895637,20.555712 -4.106307,4.405075 -7.778909,9.344978 -10.594181,14.675115 -0.853414,1.615784 -2.098146,6.163627 -3.846883,6.864667 -1.130591,0.453205 -3.013684,-0.506756 -4.116017,-0.823119 -3.106658,-0.89154 -6.240621,-1.53289 -9.437661,-1.995619 -8.615918,-1.247034 -17.76775,-0.785575 -26.215763,1.326224 -40.055509,10.012812 -60.67454,53.748674 -46.139708,91.413725 z"
       id="path7406"
       sodipodi:nodetypes="sssssscsssscssssscccsssssssssscsssssssssssccsssssssccssssssssscsssssssscsssssscssssssssscscssssscsssscccssssssssscsssscsssssssssssssssssssssssccs" />
    <path
       style="fill:#26a749;fill-opacity:1;stroke:none;stroke-width:12.4003;stroke-dasharray:none;stroke-opacity:1"
       d="m 84.036409,59.994876 c 0,0 -29.525224,36.475405 -59.463648,38.587362 -29.9508862,2.112862 -37.797581,-15.797053 -40.029024,-50.56825 0.677677,-5.314633 2.725076,-14.176931 10.1247573,-20.730766 7.399655,-6.553808 24.1858267,-9.971352 24.1858267,-9.971352 0,0 -15.2539168,-29.585972 7.477919,-52.374243 20.918275,-20.970187 50.401934,-0.788591 50.401934,-0.788591 0,0 18.869897,-35.446501 48.694156,-24.865594 28.71644,10.187887 35.067,24.299703 26.26942,43.714272 -8.79758,19.4146224 -67.661341,76.997162 -67.661341,76.997162 z"
       id="path12833"
       sodipodi:nodetypes="csczcscssc" />
  </g>
</svg>
