<?xml version="1.0" encoding="UTF-8" standalone="no"?>
<!-- Created with Inkscape (http://www.inkscape.org/) -->

<svg
   width="379.57422mm"
   height="422.74881mm"
   viewBox="0 0 379.57422 422.74881"
   version="1.1"
   id="svg1"
   inkscape:version="1.1.2 (0a00cf5339, 2022-02-04)"
   sodipodi:docname="tree_icon_gray.svg"
   xmlns:inkscape="http://www.inkscape.org/namespaces/inkscape"
   xmlns:sodipodi="http://sodipodi.sourceforge.net/DTD/sodipodi-0.dtd"
   xmlns="http://www.w3.org/2000/svg"
   xmlns:svg="http://www.w3.org/2000/svg">
  <sodipodi:namedview
     id="namedview1"
     pagecolor="#ffffff"
     bordercolor="#000000"
     borderopacity="0.25"
     inkscape:showpageshadow="2"
     inkscape:pageopacity="0.0"
     inkscape:pagecheckerboard="0"
     inkscape:deskcolor="#d1d1d1"
     inkscape:document-units="mm"
     inkscape:zoom="0.17153603"
     inkscape:cx="445.97045"
     inkscape:cy="314.80267"
     inkscape:window-width="1920"
     inkscape:window-height="1011"
     inkscape:window-x="0"
     inkscape:window-y="32"
     inkscape:window-maximized="1"
     inkscape:current-layer="layer1"
     inkscape:pageshadow="2"
     showgrid="false" />
  <defs
     id="defs1" />
  <g
     inkscape:label="Layer 1"
     inkscape:groupmode="layer"
     id="layer1"
     transform="translate(62.972607,112.8744)">
    <path
       style="fill:#7b695d;fill-opacity:1;stroke:none;stroke-width:0.264583"
       d="m 97.830381,242.36272 -4.335039,14.71713 c 6.272901,2.13252 4.344459,7.68122 2.802096,12.30739 -3.557772,10.67136 -10.962904,19.33048 -15.704475,29.35356 l 92.174877,-0.2453 c -4.12774,-7.41402 -8.68915,-15.45034 -11.99327,-23.32445 -7.02455,-16.74037 -10.62863,-34.92992 -12.55548,-52.91666 -1.11816,-10.43744 -3.00175,-21.03835 -0.23953,-31.39723 4.2259,-15.84796 16.37239,-29.97147 24.92473,-43.74444 2.13341,-3.43572 4.36049,-6.81458 6.52531,-10.23056 0.68921,-1.08763 1.99406,-2.83962 1.02645,-4.12094 -2.05912,-2.72669 -7.87199,4.86172 -9.24787,6.2376 -5.8351,5.83505 -15.5628,21.25298 -25.4,14.77857 -5.53112,-3.64032 -4.82918,-9.11027 -4.0303,-14.77857 1.35763,-9.63252 2.48783,-19.29984 3.88194,-28.92776 0.73065,-5.04603 3.28645,-11.28033 -3.73221,-11.288902 -0.95946,0 -2.18453,-0.167667 -3.07673,0.261884 -1.38737,0.667914 -2.1186,2.308838 -2.34625,3.616718 -0.67574,3.88247 -1.52818,7.87559 -2.18434,11.76166 -2.12702,12.59726 -4.63799,25.70149 -6.74066,38.30288 -0.96914,5.80806 -0.90821,12.1535 -7.52425,14.03681 -6.09555,1.73519 -9.86049,-3.10862 -13.26835,-7.30218 -7.360126,-9.05711 -14.665669,-18.16571 -22.097603,-27.16388 -3.748246,-4.53813 -6.181699,-10.52917 -12.611814,-7.90104 -0.998273,0.40805 -2.267003,0.80947 -2.960767,1.68876 -1.425231,1.80644 -2.763494,5.57096 -1.60909,6.9265 l 12.259072,16.24333 16.043248,26.72836 c 3.987218,6.64279 8.230104,12.68773 10.140924,20.29572 1.8827,7.49596 2.12101,14.56555 1.02291,22.14856 -0.88205,6.09084 -1.07027,15.42896 -3.40215,21.14793 -1.12649,2.76281 -2.81723,3.35717 -5.741379,2.78855 z"
       id="path9455"
       sodipodi:nodetypes="ccsccsssssssssscsssssssssscssssc" />
    <path
       style="fill:#72594b;fill-opacity:1;stroke:none;stroke-width:13.2292;stroke-dasharray:none;stroke-opacity:1"
       d="m 140.97225,99.271505 c 0,0 -21.51604,98.839305 -16.47322,120.691535 5.04283,21.85223 11.76658,67.57379 24.87793,78.66801 13.11132,11.09422 22.1884,7.05995 22.1884,7.05995 l 2.35331,-6.72377 -22.52458,-68.24618 2.35331,-46.39394 30.92928,-48.74728 -11.09419,-7.73232 -26.55887,24.20554 0.33621,-54.46247 z"
       id="path12834" />
    <path
       style="opacity:0.279874;fill:#127a3e;stroke:none;stroke-width:0.264999;stroke-miterlimit:4;stroke-dasharray:none"
       d="m 240.30438,151.29495 c -4.17835,1.85208 -8.89013,2.8199 -13.40557,3.42812 -1.62165,0.21847 -4.83981,-0.11911 -6.17008,0.81503 -2.10955,1.48132 -3.19347,7.21076 -4.65849,9.51518 -4.34285,6.83125 -10.87578,13.40961 -18.45199,16.58056 v 0.35277 c 13.96344,0 28.40694,-6.3142 36.81955,-17.6389 2.20594,-2.96952 6.24178,-9.22154 5.86658,-13.05276 z"
       id="path10064" />
    <path
       style="opacity:0.279874;fill:#127a3e;stroke:none;stroke-width:0.264999;stroke-miterlimit:4;stroke-dasharray:none"
       d="m 31.733155,-63.899223 v 0.352769 h 2.469435 l -2.469435,-0.352769 m 9.172204,0 v 0.352769 h 2.469462 l -2.469462,-0.352769 m 165.805561,0 v 0.352769 h 2.46946 l -2.46946,-0.352769 m 8.1139,0 v 0.352769 c 23.14152,9.636813 36.54962,36.496942 34.89343,60.6777686 -0.60079,8.7714665 -4.30662,15.7805174 -6.6712,23.9888974 12.36408,5.858642 22.89842,14.005348 30.68159,25.4 18.60875,27.243431 14.75382,64.908798 -8.45686,88.194438 -5.67708,5.69544 -12.63856,11.00124 -20.10806,14.11112 v 0.35277 c 5.60342,-0.0464 11.29882,-1.52556 16.58053,-3.29255 35.92052,-12.01719 53.72331,-55.879921 36.02252,-89.48801 -4.9739,-9.443825 -11.81076,-17.286022 -20.50029,-23.485289 -4.05405,-2.89224 -12.24184,-4.89294 -14.61603,-9.323282 -1.99239,-3.717925 1.34631,-7.862278 2.60281,-11.288633 1.87685,-5.1179143 3.14188,-10.4274932 3.51499,-15.8750258 0.22247,-3.2478927 -0.39544,-6.6598272 0.10697,-9.8777692 0.41776,-2.67589 2.59107,-4.653703 5.21626,-4.938897 l -3.88056,-13.405538 c -8.04563,2.550451 -12.46378,-10.339334 -17.2861,-15.169462 -9.93942,-9.955345 -23.79012,-16.923835 -38.1,-16.933307 z"
       id="path8144" />
    <path
       style="opacity:0.279874;fill:#66ef9c;stroke:none;stroke-width:0.264999;stroke-miterlimit:4;stroke-dasharray:none;fill-opacity:1"
       d="m 83.061553,177.15865 c -1.251902,-3.95472 -1.252458,-9.9627 -4.622985,-13.59333 L 67.03963,143.55874 c -2.035228,-3.57211 -9.038325,-4.78486 -10.023924,-8.82708 -3.044058,-12.48426 11.961627,-25.30703 23.033063,-20.78654 5.070475,2.07034 8.331306,7.29972 11.641402,11.42066 4.837272,6.02223 9.778549,11.96094 14.605129,17.99167 2.68997,3.36102 5.91445,9.62662 9.2668,12.33175 1.54969,-4.90056 3.59105,-12.29786 4.4477,-17.37127 1.41134,-8.35867 3.00905,-17.35932 4.4116,-25.71962 0.97121,-5.78903 -1.25102,-12.781438 2.25507,-17.678875 7.11351,-9.936427 26.1451,-7.862253 30.35875,3.843496 1.71153,4.754639 -0.12478,10.602539 -0.80667,15.440579 -1.27455,9.0433 -3.43757,19.05347 -4.58358,28.1133 7.09194,-4.9957 12.72815,-15.64698 20.83157,-19.30998 9.31878,-4.21235 18.05643,3.15998 16.71185,13.51291 -0.66437,5.11572 -3.59373,9.87613 -6.30568,14.09454 -5.03246,7.82809 -9.75617,16.19274 -15.22892,23.72016 l 6.17437,2.26012 c 6.10428,4.34578 10.63162,5.16779 18.05115,5.58096 1.9836,0.11047 4.02672,0.67535 5.99723,0.11542 5.23787,-1.48831 10.84439,-6.66862 14.25564,-10.71126 2.56236,-3.03668 4.79126,-6.25666 6.44935,-9.8778 0.7112,-1.55321 1.16827,-4.68971 2.67637,-5.63462 1.30003,-0.8146 4.01989,-0.5611 5.54643,-0.73305 3.30891,-0.37277 6.68618,-1.04947 9.87777,-2.00046 11.67008,-3.47726 22.84198,-9.86378 31.38334,-18.79574 27.34736,-28.59791 25.09705,-75.843949 -4.92501,-101.646009 -5.32228,-4.57417 -11.64833,-8.96284 -18.34443,-11.242887 2.37281,-5.699469 4.74009,-11.157029 5.84753,-17.2861285 3.45532,-19.1236595 -2.16146,-38.7245485 -14.96502,-53.2694345 -4.71644,-5.357919 -12.01452,-12.22674 -19.10474,-14.239055 -6.5605,-1.861952 -16.05682,1.263094 -22.225,3.424634 -2.35821,0.8264 -4.86577,2.589583 -7.40834,2.652342 -4.64809,0.114724 -4.25952,-4.45008 -7.15356,-6.149128 -3.82768,-2.247133 -8.92543,-2.364581 -12.95477,-4.810945 -6.62704,-4.023519 -10.25911,-9.969712 -15.03333,-15.802848 -3.97698,-4.859099 -8.50554,-9.085024 -13.54167,-12.830678 -2.81453,-2.093303 -6.37648,-4.971993 -9.87779,-5.728833 -4.59343,-0.99296 -10.34587,0.3021 -14.81667,1.40544 -4.43976,1.095662 -8.62174,2.647787 -12.7,4.720851 -5.024516,2.554022 -9.760002,5.995537 -13.758042,9.965134 -5.344662,5.306695 -9.531694,11.744166 -12.396523,18.695855 -1.566544,3.801374 -2.002234,9.036314 -6.653768,10.357934 -2.758281,0.783723 -5.633508,-1.280636 -8.113871,-2.221441 -4.496249,-1.705451 -9.315132,-3.024532 -14.111128,-3.490489 -21.90787,-2.128494 -43.4710679,7.937288 -54.8735246,27.104022 -6.7633844,11.368722 -9.2437744,25.093638 -7.0618344,38.0999993 0.748585,4.4623302 1.948576,8.9302697 3.835929,13.0527687 1.202478,2.626572 3.2121471,5.520161 1.805807,8.466667 -1.481296,3.103589 -4.78483,3.910171 -7.559145,5.400833 -4.91535,2.641045 -9.60763,5.726748 -13.758334,9.475735 -14.371108,12.980246 -22.103741,32.502316 -20.782306,51.798431 1.648592,24.0738 17.012629,45.10103 39.126742,54.52975 5.0308666,2.145 10.472552,3.45742 15.8749996,4.23307 2.5360841,0.36415 5.8359674,-0.0561 8.1138974,1.24097 3.188732,1.81579 3.609764,5.38171 5.001763,8.43511 1.762125,3.86527 4.310644,7.58282 7.359359,10.55177 15.815653,15.40189 40.992027,15.69251 60.148892,7.7272 z"
       id="path7569"
       sodipodi:nodetypes="ccssssscssssscsssccssssssssscsssssssssssssssssssssssssssssc" />
    <path
       style="opacity:0.279874;fill:#127a3e;stroke:none;stroke-width:0.264999;stroke-miterlimit:4;stroke-dasharray:none"
       d="m 123.87157,-102.55239 v 0.3528 c 5.47079,0 9.44023,2.65496 13.75834,5.866552 8.88714,6.609847 14.05083,15.270427 21.53332,23.060951 6.03946,6.288087 13.09563,8.318579 21.15281,10.583598 -5.83584,-25.213548 -32.19958,-39.863901 -56.44447,-39.863901 z"
       id="path7564" />
    <path
       style="fill:#525266;stroke:none;stroke-width:0.262107;fill-opacity:1"
       d="m -22.615306,19.447375 c -8.264578,2.430066 -16.679015,10.780342 -22.115859,17.120976 -20.254806,23.621867 -24.097932,58.199548 -9.235122,85.604849 8.286882,15.28011 21.910833,27.19015 37.99234,33.68141 4.395391,1.77421 8.9876049,3.06321 13.6321801,3.98478 1.86663535,0.37037 5.0279828,0.16087 6.5628307,1.3289 2.6909977,2.04785 4.3327902,7.78166 6.4247452,10.6208 4.780491,6.48774 11.524059,11.96043 18.82087,15.41274 12.271216,5.80589 25.765284,7.52113 39.148834,5.45574 4.635686,-0.71536 9.319313,-2.05314 13.632207,-3.89689 1.350856,-0.57748 4.036377,-2.66822 5.519367,-1.94919 2.379001,1.15343 4.444709,6.7428 5.386334,9.08669 4.277016,10.64689 2.158974,21.52817 0.365707,32.49491 -0.77089,4.71458 -7.620792,32.90204 -0.26318,33.82046 2.685944,0.33528 9.214692,-20.08001 10.315812,-22.63938 2.43303,-5.65526 2.34553,-13.49777 3.18955,-19.56686 0.92985,-6.68634 1.49252,-13.23123 0.147,-19.91622 -1.80615,-8.97372 -6.45583,-16.37453 -11.098234,-24.10913 L 80.709829,150.82461 70.642936,134.05307 c -0.896091,-1.49293 -3.459374,-4.37639 -2.112089,-6.15182 0.661114,-0.87133 1.919208,-1.21817 2.881021,-1.6333 1.181471,-0.50991 2.855198,-1.55895 4.189413,-1.27466 3.037549,0.6473 6.499119,7.09255 8.422481,9.40919 7.283291,8.77239 14.411854,17.6838 21.574578,26.55493 3.63722,4.5048 7.66738,8.89569 14.05051,7.06181 6.0992,-1.75239 6.72137,-8.06974 7.60367,-13.35111 2.12389,-12.71363 4.57732,-25.37164 6.69954,-38.08542 0.64249,-3.84895 1.36375,-7.68689 2.03793,-11.53046 0.27403,-1.56216 0.45546,-3.64025 2.20004,-4.26919 0.88707,-0.3198 1.87523,-0.0172 2.78095,0.045 6.60736,0.45234 4.10258,6.69304 3.40075,11.56171 -1.39161,9.65394 -2.53693,19.34308 -3.89864,29.00085 -0.7312,5.18626 -1.23296,10.33756 3.64379,13.74955 9.69484,6.78294 19.69878,-8.28331 25.51668,-14.09898 1.33289,-1.33237 7.175,-9.1344 9.16308,-6.52632 0.9924,1.30185 -0.42535,2.99257 -1.10607,4.08048 -2.12098,3.38987 -4.28797,6.75029 -6.42069,10.13283 -4.7779,7.57774 -9.61329,15.11903 -14.36825,22.71146 -4.01781,6.41538 -8.07178,12.50143 -10.02885,19.91627 -2.72994,10.34307 -1.13599,20.65417 -0.0175,31.09725 1.92913,18.01286 5.40022,36.33891 12.44036,53.10997 3.29912,7.85918 8.12779,14.73591 11.7361,22.36208 h -88.4344 c 1.564614,-4.12626 4.648094,-7.94904 6.71793,-11.87987 3.268212,-6.20668 5.767043,-12.9172 7.962608,-19.56684 1.477857,-4.47593 11.796272,-42.83721 4.830642,-42.1164 -5.436948,0.56258 -11.088359,21.22822 -17.655869,42.46584 -3.559291,11.50982 -9.919176,22.1143 -17.555633,31.44668 -2.242079,2.73997 -3.876754,6.71317 -0.96258,9.7087 2.132991,2.19263 5.488437,1.82173 8.273864,1.82173 h 19.22489 67.461848 17.47718 c 2.68959,0 5.98845,0.47284 8.37501,-1.0501 2.44944,-1.56308 3.18289,-5.10736 1.95673,-7.68511 -1.38136,-2.90389 -4.10443,-5.42743 -5.98887,-8.03633 -3.43344,-4.75345 -6.35251,-9.78508 -8.97329,-15.02455 -9.46769,-18.92802 -12.84052,-39.67154 -15.39306,-60.4475 -1.28207,-10.43527 -2.45631,-21.69662 3.46035,-31.09428 0.37875,-0.60156 0.86201,-1.54757 1.69622,-1.51331 1.4106,0.058 3.12057,1.65182 4.3806,2.24795 3.17241,1.50093 6.43469,2.75839 9.7872,3.79574 13.87684,4.29369 30.43372,3.41434 43.69295,-2.5437 8.16988,-3.67112 15.55927,-8.84227 21.08964,-15.96599 1.76946,-2.27923 3.36894,-4.7697 4.68591,-7.33756 0.64971,-1.26669 1.09426,-3.09002 2.26642,-3.98203 1.53474,-1.16801 4.69622,-0.95853 6.56278,-1.3289 4.64457,-0.92157 9.23686,-2.21062 13.6322,-3.98478 16.08148,-6.49121 29.70557,-18.4013 37.99232,-33.68141 14.86265,-27.405433 11.01979,-61.982902 -9.23507,-85.604849 -5.44502,-6.350212 -13.83697,-14.68673 -22.11592,-17.120976 3.48967,-9.043008 5.27563,-17.9604955 4.89361,-27.6031847 -0.89225,-22.5215783 -7.96596,-30.5967183 -13.67633,-27.9565723 -4.43823,2.051977 0.65932,11.16969 1.79212,25.510737 0.53402,6.7606221 -0.1306,13.3795297 -2.21779,19.9162196 -1.26588,3.9643314 -5.15544,9.4588014 -4.54301,13.6268884 0.639,4.349168 4.88572,5.129212 8.15872,6.93965 6.20263,3.430958 12.31112,7.628864 17.02782,12.976595 20.77871,23.558394 23.01221,58.393302 2.73431,83.158962 -8.14681,9.94984 -19.27593,17.28632 -31.6466,20.81509 -5.19229,1.48114 -12.44412,0.7606 -17.12251,3.18487 -2.69997,1.39906 -3.06097,4.56089 -4.14758,7.09734 -1.54184,3.59905 -3.64631,6.94431 -6.3576,9.78342 -11.84762,12.40623 -29.47744,17.02427 -46.12597,13.62551 -3.90647,-0.79745 -7.62556,-2.15035 -11.18537,-3.92837 -1.0309,-0.51493 -2.95198,-1.07958 -3.537,-2.14662 -0.57812,-1.05442 0.71265,-2.51296 1.23822,-3.35764 1.74898,-2.8108 3.52092,-5.61002 5.32461,-8.38581 6.01472,-9.25603 21.03826,-25.28327 11.24069,-36.33698 -12.46717,-14.06572 -26.87135,5.61047 -35.23912,13.97492 0.1873,-9.0805 2.29333,-18.60743 3.59011,-27.60321 0.6586,-4.56877 1.94215,-9.44176 0.58954,-13.976294 C 153.4449,86.72663 133.41184,84.787975 126.67647,94.9194 c -3.19114,4.800203 -3.10123,11.93649 -4.16242,17.47038 -1.71373,8.93686 -3.25125,17.93015 -4.7574,26.9044 -0.76948,4.58494 -2.10227,9.33222 -2.30224,13.9763 -3.22014,-2.59745 -5.72119,-6.56921 -8.32025,-9.78342 -5.09852,-6.3051 -10.19643,-12.61714 -15.361308,-18.868 -2.876735,-3.48162 -5.503942,-7.80444 -9.525053,-10.07192 -10.860405,-6.12407 -27.512883,3.86149 -26.196607,16.36125 0.572135,5.43299 4.791657,10.46049 7.531126,15.02453 5.983552,9.96897 12.50278,19.78784 17.966399,30.04904 -4.75316,1.36875 -9.044728,3.74193 -13.981747,4.7348 -14.438948,2.90396 -31.461207,-0.68691 -42.29473,-11.03783 -3.330681,-3.18233 -6.436731,-6.61268 -8.427906,-10.81794 -1.34059,-2.83123 -1.849331,-7.28382 -4.859866,-8.84436 -2.7481213,-1.42452 -6.4355663,-0.9602 -9.4325546,-1.44158 -5.8147478,-0.93398 -11.4024832,-2.64639 -16.7780754,-5.03944 -22.114642,-9.84478 -38.107382,-34.33567 -37.03783,-58.749011 0.741177,-16.918146 7.722605,-33.98221 20.609295,-45.32323 4.202166,-3.698161 8.671243,-6.993943 13.632206,-9.610302 2.606675,-1.374775 6.354551,-2.201809 7.610105,-5.165936 1.4968008,-3.533696 -0.921385,-6.96984 -2.208953,-10.131425 -2.12897,-5.2278758 -3.408786,-10.8079911 -3.943668,-16.4221848 -2.117751,-22.2284392 10.875989,-43.2782132 30.001395,-53.8572602 10.772325,-5.958628 23.990432,-7.563432 36.002965,-5.393769 3.972401,0.717444 7.806716,2.034911 11.534934,3.556635 2.655781,1.083945 5.210016,2.522405 8.039205,1.032298 2.87028,-1.511643 3.300492,-4.768029 4.343427,-7.532475 1.82962,-4.84968 4.173775,-9.439169 7.246011,-13.626888 11.661987,-15.896326 31.00102,-24.877762 50.62958,-23.001552 16.13427,1.542177 30.90106,10.603706 40.24625,23.700396 2.91846,4.090008 5.19551,8.566493 6.92346,13.277479 1.08053,2.945897 1.60522,6.242526 4.91222,7.489878 4.52766,1.7077 11.88638,-3.247073 16.42851,-4.381871 8.81449,-2.202206 18.53528,-1.891188 27.26441,0.534379 10.6584,2.961587 19.72562,8.902541 27.23312,16.972677 3.29181,3.538485 7.94976,8.79403 10.16825,13.077454 8.44238,16.30038 17.80435,10.221169 8.10911,-7.486967 -2.62409,-4.792834 -6.27438,-10.319226 -9.80284,-14.325706 -12.13514,-13.779261 -30.66378,-22.012671 -48.99027,-22.012671 -5.7058,0 -11.19318,0.34544 -16.77808,1.625176 -1.84494,0.422752 -5.8339,2.458059 -7.61145,1.74543 -1.73141,-0.694108 -3.01803,-5.252826 -3.83829,-6.864667 -2.59903,-5.107226 -6.199,-9.692164 -9.97222,-13.976324 -10.60035,-12.035713 -27.0223,-19.737413 -42.89404,-21.254503 -20.33701,-1.94395 -41.824064,5.46023 -55.895637,20.555712 -4.106307,4.405075 -7.778909,9.344978 -10.594181,14.675115 -0.853414,1.615784 -2.098146,6.163627 -3.846883,6.864667 -1.130591,0.453205 -3.013684,-0.506756 -4.116017,-0.823119 -3.106658,-0.89154 -6.240621,-1.53289 -9.437661,-1.995619 -8.615918,-1.247034 -17.76775,-0.785575 -26.215763,1.326224 -40.055509,10.012812 -60.67454,53.748674 -46.139708,91.413725 z"
       id="path7406"
       sodipodi:nodetypes="sssssscsssscssssscccsssssssssscsssssssssssccsssssssccssssssssscsssssssscsssssscssssssssscscssssscsssscccssssssssscsssscsssssssssssssssssssssssccs" />
  </g>
</svg>
